<svg id="Ebene_1" data-name="Ebene 1" xmlns="http://www.w3.org/2000/svg" width="1200" height="510.13" viewBox="0 0 1200 510.13">
  <title>TEDxLogo_Cover</title>
  <g>
    <g>
      <line x1="620.82" y1="214.24" x2="581.31" y2="426.9" style="fill: #fff;stroke: #fff;stroke-miterlimit: 10;stroke-width: 8px"/>
      <line x1="601.98" y1="251.57" x2="598.91" y2="391.78" style="fill: #fff;stroke: #fff;stroke-miterlimit: 10;stroke-width: 8px"/>
      <line x1="586.63" y1="229.23" x2="610.87" y2="416.25" style="fill: #fff;stroke: #fff;stroke-miterlimit: 10;stroke-width: 8px"/>
      <line x1="593.41" y1="192.54" x2="600.45" y2="426.9" style="fill: #fff;stroke: #fff;stroke-miterlimit: 10;stroke-width: 8px"/>
      <line x1="582.57" y1="215.25" x2="609.29" y2="421.34" style="fill: #fff;stroke: #fff;stroke-miterlimit: 10;stroke-width: 8px"/>
      <line x1="572.64" y1="207.12" x2="628.26" y2="440.13" style="fill: #fff;stroke: #fff;stroke-miterlimit: 10;stroke-width: 8px"/>
    </g>
    <g>
      <polygon points="573.35 47.22 560.1 79.36 579.04 134.46 559.05 143.01 569.5 162.92 587.99 143.74 615.37 139.53 629.5 120.95 643.07 123.06 631.56 102.81 611.32 109.75 573.35 47.22" style="fill: #fff;stroke: #fff;stroke-miterlimit: 10"/>
      <polygon points="601.97 83.34 613.84 104.18 628.46 98.43 640.91 79.29 620.5 74.19 601.97 83.34" style="fill: #fff;stroke: #fff;stroke-miterlimit: 10"/>
    </g>
    <g>
      <line x1="967.69" y1="331.14" x2="944.64" y2="455.18" style="fill: #fff;stroke: #fff;stroke-miterlimit: 10;stroke-width: 8px"/>
      <line x1="956.7" y1="352.92" x2="954.91" y2="434.7" style="fill: #fff;stroke: #fff;stroke-miterlimit: 10;stroke-width: 8px"/>
      <line x1="947.75" y1="339.89" x2="961.89" y2="448.97" style="fill: #fff;stroke: #fff;stroke-miterlimit: 10;stroke-width: 8px"/>
      <line x1="951.71" y1="318.49" x2="955.81" y2="455.18" style="fill: #fff;stroke: #fff;stroke-miterlimit: 10;stroke-width: 8px"/>
      <line x1="945.38" y1="331.73" x2="960.96" y2="451.94" style="fill: #fff;stroke: #fff;stroke-miterlimit: 10;stroke-width: 8px"/>
      <line x1="939.59" y1="326.99" x2="972.03" y2="462.9" style="fill: #fff;stroke: #fff;stroke-miterlimit: 10;stroke-width: 8px"/>
    </g>
    <g>
      <line x1="134.15" y1="221.85" x2="120.13" y2="297.3" style="fill: #fff;stroke: #fff;stroke-miterlimit: 10;stroke-width: 8px"/>
      <line x1="127.46" y1="235.09" x2="126.37" y2="284.84" style="fill: #fff;stroke: #fff;stroke-miterlimit: 10;stroke-width: 8px"/>
      <line x1="122.02" y1="227.17" x2="130.62" y2="293.52" style="fill: #fff;stroke: #fff;stroke-miterlimit: 10;stroke-width: 8px"/>
      <line x1="124.42" y1="214.15" x2="126.92" y2="297.3" style="fill: #fff;stroke: #fff;stroke-miterlimit: 10;stroke-width: 8px"/>
      <line x1="120.58" y1="222.21" x2="130.06" y2="295.33" style="fill: #fff;stroke: #fff;stroke-miterlimit: 10;stroke-width: 8px"/>
      <line x1="117.05" y1="219.32" x2="136.79" y2="301.99" style="fill: #fff;stroke: #fff;stroke-miterlimit: 10;stroke-width: 8px"/>
    </g>
    <g>
      <line x1="314.96" y1="357.58" x2="300.94" y2="433.03" style="fill: #fff;stroke: #fff;stroke-miterlimit: 10;stroke-width: 8px"/>
      <line x1="308.27" y1="370.83" x2="307.18" y2="420.57" style="fill: #fff;stroke: #fff;stroke-miterlimit: 10;stroke-width: 8px"/>
      <line x1="302.83" y1="362.9" x2="311.43" y2="429.26" style="fill: #fff;stroke: #fff;stroke-miterlimit: 10;stroke-width: 8px"/>
      <line x1="305.23" y1="349.88" x2="307.73" y2="433.03" style="fill: #fff;stroke: #fff;stroke-miterlimit: 10;stroke-width: 8px"/>
      <line x1="301.39" y1="357.94" x2="310.87" y2="431.06" style="fill: #fff;stroke: #fff;stroke-miterlimit: 10;stroke-width: 8px"/>
      <line x1="297.86" y1="355.06" x2="317.6" y2="437.73" style="fill: #fff;stroke: #fff;stroke-miterlimit: 10;stroke-width: 8px"/>
    </g>
    <g>
      <line x1="1081.15" y1="247.68" x2="1071.57" y2="299.21" style="fill: #fff;stroke: #fff;stroke-miterlimit: 10;stroke-width: 8px"/>
      <line x1="1076.58" y1="256.72" x2="1075.84" y2="290.7" style="fill: #fff;stroke: #fff;stroke-miterlimit: 10;stroke-width: 8px"/>
      <line x1="1072.86" y1="251.31" x2="1078.74" y2="296.63" style="fill: #fff;stroke: #fff;stroke-miterlimit: 10;stroke-width: 8px"/>
      <line x1="1074.51" y1="242.42" x2="1076.21" y2="299.21" style="fill: #fff;stroke: #fff;stroke-miterlimit: 10;stroke-width: 8px"/>
      <line x1="1071.88" y1="247.92" x2="1078.35" y2="297.86" style="fill: #fff;stroke: #fff;stroke-miterlimit: 10;stroke-width: 8px"/>
      <line x1="1069.47" y1="245.95" x2="1082.95" y2="302.41" style="fill: #fff;stroke: #fff;stroke-miterlimit: 10;stroke-width: 8px"/>
    </g>
    <g>
      <line x1="493.98" y1="291.61" x2="489.21" y2="317.28" style="fill: #fff;stroke: #fff;stroke-miterlimit: 10;stroke-width: 8px"/>
      <line x1="491.7" y1="296.12" x2="491.33" y2="313.04" style="fill: #fff;stroke: #fff;stroke-miterlimit: 10;stroke-width: 8px"/>
      <line x1="489.85" y1="293.42" x2="492.78" y2="315.99" style="fill: #fff;stroke: #fff;stroke-miterlimit: 10;stroke-width: 8px"/>
      <line x1="490.67" y1="288.99" x2="491.52" y2="317.28" style="fill: #fff;stroke: #fff;stroke-miterlimit: 10;stroke-width: 8px"/>
      <line x1="489.36" y1="291.73" x2="492.59" y2="316.61" style="fill: #fff;stroke: #fff;stroke-miterlimit: 10;stroke-width: 8px"/>
      <line x1="488.16" y1="290.75" x2="494.87" y2="318.87" style="fill: #fff;stroke: #fff;stroke-miterlimit: 10;stroke-width: 8px"/>
    </g>
  </g>
</svg>
